<svg width="80" height="80" viewBox="0 0 80 80" fill="none" xmlns="http://www.w3.org/2000/svg">
  <!-- Background circle -->
  <circle cx="40" cy="40" r="40" fill="#EC4899"/>
  
  <!-- Face -->
  <circle cx="40" cy="42" r="18" fill="#FBBF24"/>
  
  <!-- Eyes -->
  <circle cx="35" cy="38" r="2" fill="#1F2937"/>
  <circle cx="45" cy="38" r="2" fill="#1F2937"/>
  
  <!-- Smile -->
  <path d="M34 46 Q40 50 46 46" stroke="#1F2937" stroke-width="2" fill="none" stroke-linecap="round"/>
  
  <!-- Hair -->
  <path d="M24 35 Q24 25 40 25 Q56 25 56 35 Q56 30 52 30 Q48 28 44 30 Q40 28 36 30 Q32 28 28 30 Q24 30 24 35" fill="#8B4513"/>
  
  <!-- Tiara -->
  <path d="M30 30 L32 25 L35 28 L40 23 L45 28 L48 25 L50 30" stroke="#C0C0C0" stroke-width="2" fill="none" stroke-linecap="round"/>
  <path d="M32 25 L35 28 L40 23 L45 28 L48 25" stroke="#FFD700" stroke-width="1.5" fill="none" stroke-linecap="round"/>
  
  <!-- Tiara jewels -->
  <circle cx="32" cy="25" r="1" fill="#EF4444"/>
  <circle cx="40" cy="23" r="1.5" fill="#8B5CF6"/>
  <circle cx="48" cy="25" r="1" fill="#10B981"/>
</svg>
