<svg width="1922" height="292" viewBox="0 0 1922 292" fill="none" xmlns="http://www.w3.org/2000/svg">
<path d="M304.383 89.1513C114.852 81.1349 23.1563 125.893 1 149.275V259H1921V109.192C1886.82 109.192 1528.36 61.0937 1407.29 59.0896C1286.22 57.0855 996.134 89.1514 865.095 109.192C734.056 129.234 541.297 99.1719 304.383 89.1513Z" fill="#78B72A" stroke="#B0CF2C"/>
<path d="M388.157 235.587C267.832 202.923 79.9168 202.777 1 206.787V291H1921V235.587C1903.67 240.448 1837.91 247.253 1713.5 235.587C1557.98 221.005 1296.16 206.787 1097.94 222.828C899.723 238.868 538.563 276.418 388.157 235.587Z" fill="#C7E63C" stroke="#C7E63C"/>
<path d="M110.81 15.001C110.847 15.0008 110.885 15 110.922 15H111.422V15.0127C114.374 15.1136 116.61 15.8352 118.262 16.9941C120.05 18.2486 121.11 19.9845 121.663 21.8857C122.692 25.4223 121.986 29.5719 120.973 32.5059C123.844 33.0271 125.917 34.0029 127.35 35.2881C128.887 36.6667 129.652 38.3698 129.899 40.1514C130.346 43.3799 129.094 46.8715 127.707 49.3145C129.304 49.7327 131.707 51.3767 133.363 55.5146C134.379 58.0558 134.154 61.0774 133.504 63.7676C132.92 66.1848 131.977 68.3952 131.198 69.8623C133.877 71.1155 135.338 72.9541 136.049 74.7949C136.786 76.7037 136.706 78.5879 136.392 79.7822C136.138 83.4573 134.909 86.2275 133.05 88.2676C131.188 90.3111 128.726 91.5882 126.073 92.3311C120.88 93.7844 114.859 93.2177 110.81 92.2402C106.761 93.2175 100.74 93.7844 95.5481 92.3311C92.8946 91.5882 90.4325 90.311 88.5706 88.2676C86.7119 86.2275 85.483 83.4571 85.2288 79.7822C84.9147 78.5879 84.8342 76.7037 85.5716 74.7949C86.2828 72.954 87.744 71.1156 90.4231 69.8623C89.6436 68.3952 88.7003 66.1847 88.1165 63.7676C87.4669 61.0774 87.2418 58.0557 88.2581 55.5146C89.9134 51.3766 92.3169 49.7327 93.9134 49.3145C92.5269 46.8715 91.2752 43.3798 91.722 40.1514C91.9686 38.3698 92.7339 36.6667 94.2708 35.2881C95.7038 34.0027 97.7761 33.0271 100.648 32.5059C99.6343 29.5719 98.9282 25.4222 99.9573 21.8857C100.511 19.9844 101.57 18.2487 103.359 16.9941C105.011 15.8351 107.247 15.1136 110.199 15.0127V15H110.699C110.736 15 110.773 15.0008 110.81 15.001Z" fill="#B1D02A"/>
<rect x="108.9" y="83.3004" width="4.8" height="27.6" fill="#5D3126"/>
<path d="M555.811 48.001C555.848 48.0008 555.885 48 555.923 48H556.423V48.0127C559.374 48.1135 561.61 48.8352 563.263 49.9941C565.051 51.2486 566.111 52.9844 566.664 54.8857C567.693 58.4223 566.987 62.5719 565.974 65.5059C568.845 66.0271 570.918 67.0028 572.351 68.2881C573.888 69.6667 574.653 71.3698 574.899 73.1514C575.346 76.3799 574.095 79.8715 572.708 82.3145C574.304 82.7327 576.708 84.3766 578.363 88.5146C579.38 91.0558 579.155 94.0774 578.505 96.7676C577.921 99.1847 576.978 101.395 576.198 102.862C578.877 104.116 580.339 105.954 581.05 107.795C581.787 109.704 581.707 111.588 581.393 112.782C581.138 116.457 579.91 119.228 578.051 121.268C576.189 123.311 573.727 124.588 571.073 125.331C565.881 126.785 559.859 126.218 555.811 125.24C551.762 126.218 545.741 126.784 540.549 125.331C537.895 124.588 535.433 123.311 533.571 121.268C531.713 119.228 530.484 116.457 530.229 112.782C529.915 111.588 529.835 109.704 530.572 107.795C531.284 105.954 532.745 104.116 535.424 102.862C534.644 101.395 533.701 99.1847 533.117 96.7676C532.468 94.0774 532.242 91.0558 533.259 88.5146C534.914 84.3766 537.318 82.7327 538.914 82.3145C537.528 79.8715 536.276 76.3799 536.723 73.1514C536.969 71.3698 537.735 69.6667 539.271 68.2881C540.704 67.0028 542.777 66.0271 545.648 65.5059C544.635 62.5719 543.929 58.4223 544.958 54.8857C545.511 52.9844 546.571 51.2486 548.359 49.9941C550.012 48.8352 552.248 48.1135 555.199 48.0127V48H555.699C555.736 48 555.774 48.0008 555.811 48.001Z" fill="#B1D02A"/>
<rect x="553.9" y="116.3" width="4.8" height="27.6" fill="#5D3126"/>
<path d="M866.811 87.001C866.848 87.0008 866.885 87 866.923 87H867.423V87.0127C870.374 87.1136 872.611 87.8351 874.263 88.9941C876.051 90.2487 877.111 91.9844 877.664 93.8857C878.693 97.4222 877.987 101.572 876.974 104.506C879.845 105.027 881.918 106.003 883.351 107.288C884.888 108.667 885.653 110.37 885.899 112.151C886.346 115.38 885.095 118.872 883.708 121.314C885.304 121.733 887.708 123.377 889.363 127.515C890.38 130.056 890.155 133.077 889.505 135.768C888.921 138.185 887.978 140.395 887.198 141.862C889.877 143.116 891.339 144.954 892.05 146.795C892.787 148.704 892.707 150.588 892.393 151.782C892.138 155.457 890.909 158.228 889.051 160.268C887.189 162.311 884.727 163.588 882.073 164.331C876.881 165.785 870.859 165.218 866.811 164.24C862.762 165.218 856.741 165.784 851.549 164.331C848.895 163.588 846.433 162.311 844.571 160.268C842.712 158.227 841.484 155.457 841.229 151.782C840.915 150.588 840.835 148.704 841.572 146.795C842.284 144.954 843.745 143.116 846.424 141.862C845.644 140.395 844.701 138.185 844.117 135.768C843.468 133.077 843.242 130.056 844.259 127.515C845.914 123.377 848.318 121.733 849.914 121.314C848.527 118.871 847.276 115.38 847.723 112.151C847.969 110.37 848.735 108.667 850.271 107.288C851.704 106.003 853.777 105.027 856.648 104.506C855.635 101.572 854.929 97.4223 855.958 93.8857C856.511 91.9845 857.571 90.2486 859.359 88.9941C861.012 87.8353 863.248 87.1136 866.199 87.0127V87H866.699C866.736 87 866.774 87.0008 866.811 87.001Z" fill="#B1D02A"/>
<rect x="864.9" y="155.3" width="4.8" height="27.6" fill="#5D3126"/>
<path d="M1820.81 59.001C1820.85 59.0008 1820.88 59 1820.92 59H1821.42V59.0127C1824.37 59.1136 1826.61 59.8353 1828.26 60.9941C1830.05 62.2486 1831.11 63.9845 1831.66 65.8857C1832.69 69.4223 1831.99 73.5718 1830.97 76.5059C1833.84 77.0271 1835.92 78.0029 1837.35 79.2881C1838.89 80.6667 1839.65 82.3698 1839.9 84.1514C1840.35 87.38 1839.09 90.8715 1837.71 93.3145C1839.3 93.7327 1841.71 95.3767 1843.36 99.5146C1844.38 102.056 1844.15 105.077 1843.5 107.768C1842.92 110.185 1841.98 112.395 1841.2 113.862C1843.88 115.116 1845.34 116.954 1846.05 118.795C1846.79 120.704 1846.71 122.588 1846.39 123.782C1846.14 127.457 1844.91 130.227 1843.05 132.268C1841.19 134.311 1838.73 135.588 1836.07 136.331C1830.88 137.784 1824.86 137.218 1820.81 136.24C1816.76 137.218 1810.74 137.784 1805.55 136.331C1802.89 135.588 1800.43 134.311 1798.57 132.268C1796.71 130.228 1795.48 127.457 1795.23 123.782C1794.91 122.588 1794.83 120.704 1795.57 118.795C1796.28 116.954 1797.74 115.116 1800.42 113.862C1799.64 112.395 1798.7 110.185 1798.12 107.768C1797.47 105.077 1797.24 102.056 1798.26 99.5146C1799.91 95.3767 1802.32 93.7327 1803.91 93.3145C1802.53 90.8715 1801.27 87.3798 1801.72 84.1514C1801.97 82.3698 1802.73 80.6667 1804.27 79.2881C1805.7 78.0027 1807.78 77.0271 1810.65 76.5059C1809.63 73.5719 1808.93 69.4222 1809.96 65.8857C1810.51 63.9844 1811.57 62.2487 1813.36 60.9941C1815.01 59.8351 1817.25 59.1136 1820.2 59.0127V59H1820.7C1820.74 59 1820.77 59.0008 1820.81 59.001Z" fill="#B1D02A"/>
<rect x="1818.9" y="127.3" width="4.8" height="27.6" fill="#5D3126"/>
<path d="M1328.81 0.000976562C1328.85 0.000785225 1328.88 1.09404e-06 1328.92 0H1329.42V0.0126953C1332.37 0.113554 1334.61 0.835261 1336.26 1.99414C1338.05 3.24862 1339.11 4.98448 1339.66 6.88574C1340.69 10.4223 1339.99 14.5718 1338.97 17.5059C1341.84 18.0271 1343.92 19.0029 1345.35 20.2881C1346.89 21.6667 1347.65 23.3698 1347.9 25.1514C1348.35 28.38 1347.09 31.8715 1345.71 34.3145C1347.3 34.7327 1349.71 36.3767 1351.36 40.5146C1352.38 43.0558 1352.15 46.0774 1351.5 48.7676C1350.92 51.1848 1349.98 53.3952 1349.2 54.8623C1351.88 56.1155 1353.34 57.9541 1354.05 59.7949C1354.79 61.7038 1354.71 63.5879 1354.39 64.7822C1354.14 68.4573 1352.91 71.2275 1351.05 73.2676C1349.19 75.3111 1346.73 76.5882 1344.07 77.3311C1338.88 78.7844 1332.86 78.2177 1328.81 77.2402C1324.76 78.2175 1318.74 78.7844 1313.55 77.3311C1310.89 76.5882 1308.43 75.311 1306.57 73.2676C1304.71 71.2275 1303.48 68.4571 1303.23 64.7822C1302.91 63.5879 1302.83 61.7037 1303.57 59.7949C1304.28 57.954 1305.74 56.1156 1308.42 54.8623C1307.64 53.3952 1306.7 51.1847 1306.12 48.7676C1305.47 46.0774 1305.24 43.0557 1306.26 40.5146C1307.91 36.3767 1310.32 34.7327 1311.91 34.3145C1310.53 31.8715 1309.27 28.3798 1309.72 25.1514C1309.97 23.3698 1310.73 21.6667 1312.27 20.2881C1313.7 19.0027 1315.78 18.0271 1318.65 17.5059C1317.63 14.5719 1316.93 10.4222 1317.96 6.88574C1318.51 4.9844 1319.57 3.24866 1321.36 1.99414C1323.01 0.835103 1325.25 0.113556 1328.2 0.0126953V0H1328.7C1328.74 6.36326e-07 1328.77 0.000788904 1328.81 0.000976562Z" fill="#B1D02A"/>
<rect x="1326.9" y="68.3004" width="4.8" height="27.6" fill="#5D3126"/>
<path d="M220.811 49.001C220.848 49.0008 220.885 49 220.923 49H221.423V49.0127C224.374 49.1136 226.611 49.8351 228.263 50.9941C230.051 52.2487 231.111 53.9844 231.664 55.8857C232.693 59.4222 231.987 63.5719 230.974 66.5059C233.845 67.0271 235.918 68.0027 237.351 69.2881C238.888 70.6667 239.653 72.3698 239.899 74.1514C240.346 77.3798 239.095 80.8715 237.708 83.3145C239.304 83.7327 241.708 85.3767 243.363 89.5146C244.38 92.0557 244.155 95.0774 243.505 97.7676C242.921 100.185 241.978 102.395 241.198 103.862C243.877 105.116 245.339 106.954 246.05 108.795C246.787 110.704 246.707 112.588 246.393 113.782C246.138 117.457 244.909 120.228 243.051 122.268C241.189 124.311 238.727 125.588 236.073 126.331C230.881 127.785 224.859 127.218 220.811 126.24C216.762 127.218 210.741 127.784 205.549 126.331C202.895 125.588 200.433 124.311 198.571 122.268C196.712 120.227 195.484 117.457 195.229 113.782C194.915 112.588 194.835 110.704 195.572 108.795C196.284 106.954 197.745 105.116 200.424 103.862C199.644 102.395 198.701 100.185 198.117 97.7676C197.468 95.0774 197.242 92.0558 198.259 89.5146C199.914 85.3767 202.318 83.7327 203.914 83.3145C202.527 80.8715 201.276 77.38 201.723 74.1514C201.969 72.3698 202.735 70.6667 204.271 69.2881C205.704 68.0029 207.777 67.0271 210.648 66.5059C209.635 63.5718 208.929 59.4223 209.958 55.8857C210.511 53.9845 211.571 52.2486 213.359 50.9941C215.012 49.8353 217.248 49.1136 220.199 49.0127V49H220.699C220.736 49 220.774 49.0008 220.811 49.001Z" fill="#3E9939"/>
<rect x="218.9" y="117.3" width="4.8" height="27.6" fill="#5D3126"/>
<path d="M596.81 63.001C596.847 63.0008 596.884 63 596.922 63H597.422V63.0127C600.373 63.1136 602.61 63.8352 604.262 64.9941C606.05 66.2486 607.11 67.9845 607.663 69.8857C608.692 73.4223 607.986 77.5719 606.973 80.5059C609.844 81.0271 611.917 82.0029 613.35 83.2881C614.887 84.6667 615.652 86.3698 615.898 88.1514C616.345 91.3799 615.094 94.8715 613.707 97.3145C615.303 97.7327 617.707 99.3767 619.362 103.515C620.379 106.056 620.154 109.077 619.504 111.768C618.92 114.185 617.977 116.395 617.197 117.862C619.876 119.116 621.338 120.954 622.049 122.795C622.786 124.704 622.706 126.588 622.392 127.782C622.137 131.457 620.909 134.227 619.05 136.268C617.188 138.311 614.726 139.588 612.072 140.331C606.88 141.784 600.858 141.218 596.81 140.24C592.761 141.218 586.74 141.784 581.548 140.331C578.894 139.588 576.432 138.311 574.57 136.268C572.712 134.228 571.483 131.457 571.229 127.782C570.914 126.588 570.834 124.704 571.571 122.795C572.283 120.954 573.744 119.116 576.423 117.862C575.643 116.395 574.7 114.185 574.116 111.768C573.467 109.077 573.242 106.056 574.258 103.515C575.913 99.3766 578.317 97.7327 579.913 97.3145C578.527 94.8715 577.275 91.3798 577.722 88.1514C577.968 86.3698 578.734 84.6667 580.271 83.2881C581.703 82.0027 583.776 81.0271 586.647 80.5059C585.634 77.5719 584.928 73.4222 585.957 69.8857C586.51 67.9844 587.57 66.2487 589.358 64.9941C591.011 63.8351 593.247 63.1136 596.198 63.0127V63H596.698C596.735 63 596.773 63.0008 596.81 63.001Z" fill="#3E9939"/>
<rect x="594.899" y="131.3" width="4.8" height="27.6" fill="#5D3126"/>
<path d="M434.81 159.001C434.847 159.001 434.884 159 434.922 159H435.422V159.013C438.373 159.114 440.61 159.835 442.262 160.994C444.05 162.249 445.11 163.984 445.663 165.886C446.692 169.422 445.986 173.572 444.973 176.506C447.844 177.027 449.917 178.003 451.35 179.288C452.887 180.667 453.652 182.37 453.898 184.151C454.345 187.38 453.094 190.871 451.707 193.314C453.303 193.733 455.707 195.377 457.362 199.515C458.379 202.056 458.154 205.077 457.504 207.768C456.92 210.185 455.977 212.395 455.197 213.862C457.876 215.116 459.338 216.954 460.049 218.795C460.786 220.704 460.706 222.588 460.392 223.782C460.137 227.457 458.909 230.227 457.05 232.268C455.188 234.311 452.726 235.588 450.072 236.331C444.88 237.784 438.858 237.218 434.81 236.24C430.761 237.218 424.74 237.784 419.548 236.331C416.894 235.588 414.432 234.311 412.57 232.268C410.712 230.228 409.483 227.457 409.229 223.782C408.914 222.588 408.834 220.704 409.571 218.795C410.283 216.954 411.744 215.116 414.423 213.862C413.643 212.395 412.7 210.185 412.116 207.768C411.467 205.077 411.242 202.056 412.258 199.515C413.913 195.377 416.317 193.733 417.913 193.314C416.527 190.872 415.275 187.38 415.722 184.151C415.968 182.37 416.734 180.667 418.271 179.288C419.703 178.003 421.776 177.027 424.647 176.506C423.634 173.572 422.928 169.422 423.957 165.886C424.51 163.984 425.57 162.249 427.358 160.994C429.011 159.835 431.247 159.114 434.198 159.013V159H434.698C434.735 159 434.773 159.001 434.81 159.001Z" fill="#3E9939"/>
<rect x="432.899" y="227.3" width="4.8" height="27.6" fill="#5D3126"/>
<path d="M1562.81 152.001C1562.85 152.001 1562.89 152 1562.92 152H1563.42V152.013C1566.37 152.114 1568.61 152.835 1570.26 153.994C1572.05 155.249 1573.11 156.984 1573.66 158.886C1574.69 162.422 1573.99 166.572 1572.97 169.506C1575.85 170.027 1577.92 171.003 1579.35 172.288C1580.89 173.667 1581.65 175.37 1581.9 177.151C1582.35 180.38 1581.09 183.871 1579.71 186.314C1581.3 186.733 1583.71 188.377 1585.36 192.515C1586.38 195.056 1586.15 198.077 1585.5 200.768C1584.92 203.185 1583.98 205.395 1583.2 206.862C1585.88 208.116 1587.34 209.954 1588.05 211.795C1588.79 213.704 1588.71 215.588 1588.39 216.782C1588.14 220.457 1586.91 223.228 1585.05 225.268C1583.19 227.311 1580.73 228.588 1578.07 229.331C1572.88 230.785 1566.86 230.218 1562.81 229.24C1558.76 230.218 1552.74 230.784 1547.55 229.331C1544.9 228.588 1542.43 227.311 1540.57 225.268C1538.71 223.228 1537.48 220.457 1537.23 216.782C1536.92 215.588 1536.83 213.704 1537.57 211.795C1538.28 209.954 1539.74 208.116 1542.42 206.862C1541.64 205.395 1540.7 203.185 1540.12 200.768C1539.47 198.077 1539.24 195.056 1540.26 192.515C1541.91 188.377 1544.32 186.733 1545.91 186.314C1544.53 183.871 1543.28 180.38 1543.72 177.151C1543.97 175.37 1544.73 173.667 1546.27 172.288C1547.7 171.003 1549.78 170.027 1552.65 169.506C1551.63 166.572 1550.93 162.422 1551.96 158.886C1552.51 156.984 1553.57 155.249 1555.36 153.994C1557.01 152.835 1559.25 152.114 1562.2 152.013V152H1562.7C1562.74 152 1562.77 152.001 1562.81 152.001Z" fill="#3E9939"/>
<rect x="1560.9" y="220.3" width="4.8" height="27.6" fill="#5D3126"/>
<path d="M1791.81 78.001C1791.85 78.0008 1791.89 78 1791.92 78H1792.42V78.0127C1795.37 78.1136 1797.61 78.8351 1799.26 79.9941C1801.05 81.2487 1802.11 82.9844 1802.66 84.8857C1803.69 88.4222 1802.99 92.5719 1801.97 95.5059C1804.85 96.0271 1806.92 97.0027 1808.35 98.2881C1809.89 99.6667 1810.65 101.37 1810.9 103.151C1811.35 106.38 1810.09 109.872 1808.71 112.314C1810.3 112.733 1812.71 114.377 1814.36 118.515C1815.38 121.056 1815.15 124.077 1814.5 126.768C1813.92 129.185 1812.98 131.395 1812.2 132.862C1814.88 134.116 1816.34 135.954 1817.05 137.795C1817.79 139.704 1817.71 141.588 1817.39 142.782C1817.14 146.457 1815.91 149.228 1814.05 151.268C1812.19 153.311 1809.73 154.588 1807.07 155.331C1801.88 156.785 1795.86 156.218 1791.81 155.24C1787.76 156.218 1781.74 156.784 1776.55 155.331C1773.9 154.588 1771.43 153.311 1769.57 151.268C1767.71 149.227 1766.48 146.457 1766.23 142.782C1765.92 141.588 1765.83 139.704 1766.57 137.795C1767.28 135.954 1768.74 134.116 1771.42 132.862C1770.64 131.395 1769.7 129.185 1769.12 126.768C1768.47 124.077 1768.24 121.056 1769.26 118.515C1770.91 114.377 1773.32 112.733 1774.91 112.314C1773.53 109.871 1772.28 106.38 1772.72 103.151C1772.97 101.37 1773.73 99.6667 1775.27 98.2881C1776.7 97.0029 1778.78 96.0271 1781.65 95.5059C1780.63 92.5719 1779.93 88.4223 1780.96 84.8857C1781.51 82.9845 1782.57 81.2486 1784.36 79.9941C1786.01 78.8353 1788.25 78.1136 1791.2 78.0127V78H1791.7C1791.74 78 1791.77 78.0008 1791.81 78.001Z" fill="#3E9939"/>
<rect x="1789.9" y="146.3" width="4.8" height="27.6" fill="#5D3126"/>
<path d="M43.0375 158.5C41.5375 161 38.6375 166.8 39.0375 170" stroke="#6CA523" stroke-width="2" stroke-linecap="round"/>
<path d="M53.0562 156C51.5701 159.478 48.697 167.548 49.0933 172" stroke="#6CA523" stroke-width="2" stroke-linecap="round"/>
<path d="M61.2836 159.774C59.3209 162.046 55.3312 167.428 55.0739 170.78" stroke="#6CA523" stroke-width="2" stroke-linecap="round"/>
<path d="M291.037 188.5C289.537 191 286.637 196.8 287.037 200" stroke="#6CA523" stroke-width="2" stroke-linecap="round"/>
<path d="M301.056 186C299.57 189.478 296.697 197.548 297.093 202" stroke="#6CA523" stroke-width="2" stroke-linecap="round"/>
<path d="M309.284 189.774C307.321 192.046 303.331 197.428 303.074 200.78" stroke="#6CA523" stroke-width="2" stroke-linecap="round"/>
<path d="M454.037 124.5C452.537 127 449.637 132.8 450.037 136" stroke="#6CA523" stroke-width="2" stroke-linecap="round"/>
<path d="M464.056 122C462.57 125.478 459.697 133.548 460.093 138" stroke="#6CA523" stroke-width="2" stroke-linecap="round"/>
<path d="M472.284 125.774C470.321 128.046 466.331 133.428 466.074 136.78" stroke="#6CA523" stroke-width="2" stroke-linecap="round"/>
<path d="M661.037 197.5C659.537 200 656.637 205.8 657.037 209" stroke="#6CA523" stroke-width="2" stroke-linecap="round"/>
<path d="M671.056 195C669.57 198.478 666.697 206.548 667.093 211" stroke="#6CA523" stroke-width="2" stroke-linecap="round"/>
<path d="M679.284 198.774C677.321 201.046 673.331 206.428 673.074 209.78" stroke="#6CA523" stroke-width="2" stroke-linecap="round"/>
<path d="M1044.04 120.5C1042.54 123 1039.64 128.8 1040.04 132" stroke="#6CA523" stroke-width="2" stroke-linecap="round"/>
<path d="M1054.06 118C1052.57 121.478 1049.7 129.548 1050.09 134" stroke="#6CA523" stroke-width="2" stroke-linecap="round"/>
<path d="M1062.28 121.774C1060.32 124.046 1056.33 129.428 1056.07 132.78" stroke="#6CA523" stroke-width="2" stroke-linecap="round"/>
<path d="M1133.04 161.5C1131.54 164 1128.64 169.8 1129.04 173" stroke="#6CA523" stroke-width="2" stroke-linecap="round"/>
<path d="M1143.06 159C1141.57 162.478 1138.7 170.548 1139.09 175" stroke="#6CA523" stroke-width="2" stroke-linecap="round"/>
<path d="M1151.28 162.774C1149.32 165.046 1145.33 170.428 1145.07 173.78" stroke="#6CA523" stroke-width="2" stroke-linecap="round"/>
<path d="M1482.04 96.5C1480.54 99 1477.64 104.8 1478.04 108" stroke="#6CA523" stroke-width="2" stroke-linecap="round"/>
<path d="M1492.06 94C1490.57 97.4783 1487.7 105.548 1488.09 110" stroke="#6CA523" stroke-width="2" stroke-linecap="round"/>
<path d="M1500.28 97.7739C1498.32 100.046 1494.33 105.428 1494.07 108.78" stroke="#6CA523" stroke-width="2" stroke-linecap="round"/>
<path d="M1406.04 170.5C1404.54 173 1401.64 178.8 1402.04 182" stroke="#6CA523" stroke-width="2" stroke-linecap="round"/>
<path d="M1416.06 168C1414.57 171.478 1411.7 179.548 1412.09 184" stroke="#6CA523" stroke-width="2" stroke-linecap="round"/>
<path d="M1424.28 171.774C1422.32 174.046 1418.33 179.428 1418.07 182.78" stroke="#6CA523" stroke-width="2" stroke-linecap="round"/>
<path d="M1706.04 177.5C1704.54 180 1701.64 185.8 1702.04 189" stroke="#6CA523" stroke-width="2" stroke-linecap="round"/>
<path d="M1716.06 175C1714.57 178.478 1711.7 186.548 1712.09 191" stroke="#6CA523" stroke-width="2" stroke-linecap="round"/>
<path d="M1724.28 178.774C1722.32 181.046 1718.33 186.428 1718.07 189.78" stroke="#6CA523" stroke-width="2" stroke-linecap="round"/>
<path d="M1887.04 146.5C1885.54 149 1882.64 154.8 1883.04 158" stroke="#6CA523" stroke-width="2" stroke-linecap="round"/>
<path d="M1897.06 144C1895.57 147.478 1892.7 155.548 1893.09 160" stroke="#6CA523" stroke-width="2" stroke-linecap="round"/>
<path d="M1905.28 147.774C1903.32 150.046 1899.33 155.428 1899.07 158.78" stroke="#6CA523" stroke-width="2" stroke-linecap="round"/>
</svg>
