<svg xmlns="http://www.w3.org/2000/svg" viewBox="0 0 512 512">
  <!-- 배경 원 -->
  <circle cx="256" cy="256" r="240" fill="#8B5CF6" stroke="#E5E7EB" stroke-width="4"/>
  
  <!-- 동화책 -->
  <g transform="translate(256, 256)">
    <!-- 책 표지 -->
    <rect x="-100" y="-65" width="200" height="130" rx="10" ry="10" fill="#FFFFFF" stroke="#7C3AED" stroke-width="3"/>
    
    <!-- 책 페이지들 -->
    <rect x="-90" y="-55" width="180" height="110" rx="8" ry="8" fill="#FEFCE8" stroke="#F3F4F6" stroke-width="2"/>
    
    <!-- 책 제목 장식 -->
    <rect x="-75" y="-45" width="150" height="6" rx="3" fill="#8B5CF6" opacity="0.5"/>
    <rect x="-65" y="-32" width="130" height="4" rx="2" fill="#EC4899" opacity="0.5"/>
    <rect x="-60" y="-20" width="120" height="4" rx="2" fill="#F59E0B" opacity="0.5"/>
    
    <!-- 페이지 내용 (텍스트 라인들) -->
    <g opacity="0.6">
      <rect x="-70" y="-5" width="60" height="3" rx="1.5" fill="#6B7280"/>
      <rect x="-70" y="3" width="80" height="3" rx="1.5" fill="#6B7280"/>
      <rect x="-70" y="11" width="55" height="3" rx="1.5" fill="#6B7280"/>
      <rect x="-70" y="19" width="75" height="3" rx="1.5" fill="#6B7280"/>
      <rect x="-70" y="27" width="50" height="3" rx="1.5" fill="#6B7280"/>
      
      <rect x="15" y="-5" width="45" height="3" rx="1.5" fill="#6B7280"/>
      <rect x="15" y="3" width="55" height="3" rx="1.5" fill="#6B7280"/>
      <rect x="15" y="11" width="40" height="3" rx="1.5" fill="#6B7280"/>
      <rect x="15" y="19" width="50" height="3" rx="1.5" fill="#6B7280"/>
      <rect x="15" y="27" width="35" height="3" rx="1.5" fill="#6B7280"/>
    </g>
    
    <!-- 책 중앙 바인딩 라인 -->
    <line x1="0" y1="-55" x2="0" y2="55" stroke="#E5E7EB" stroke-width="3"/>
    
    <!-- 마법 반짝이 효과 -->
    <g opacity="0.8">
      <!-- 큰 별들 -->
      <path d="M-120,-80 L-110,-60 L-90,-70 L-110,-40 L-120,-20 L-130,-40 L-150,-70 L-130,-60 Z" fill="#FFD700"/>
      <path d="M130,-70 L140,-50 L160,-60 L140,-30 L130,-10 L120,-30 L100,-60 L120,-50 Z" fill="#FFD700"/>
      
      <!-- 작은 별들 -->
      <circle cx="-110" cy="90" r="4" fill="#FDE047"/>
      <circle cx="115" cy="95" r="3.5" fill="#FDE047"/>
      <circle cx="-130" cy="30" r="3" fill="#F97316"/>
      <circle cx="125" cy="40" r="3" fill="#F97316"/>
      
      <!-- 반짝이는 점들 -->
      <circle cx="-100" cy="-110" r="2.5" fill="#EC4899"/>
      <circle cx="105" cy="-105" r="2" fill="#8B5CF6"/>
      <circle cx="-115" cy="120" r="2" fill="#06B6D4"/>
      <circle cx="120" cy="115" r="2.5" fill="#06B6D4"/>
    </g>
    
    <!-- 마법 지팡이 -->
    <g transform="translate(80, -100) rotate(15)" opacity="0.8">
      <rect x="-1.5" y="0" width="3" height="35" fill="#8B4513"/>
      <circle cx="0" cy="-3" r="6" fill="#FFD700"/>
      <path d="M-4,-8 L4,-8 L0,-16 Z" fill="#FFD700"/>
    </g>
  </g>
</svg>
