<svg width="34" height="33" viewBox="0 0 34 33" fill="none" xmlns="http://www.w3.org/2000/svg">
<path opacity="0.3" d="M15.0976 1.86303C15.6958 0.0193758 18.3042 0.0193744 18.9024 1.86303L21.5088 9.8959C21.7763 10.7203 22.5444 11.2786 23.4111 11.2786H31.8516C33.7883 11.2786 34.5943 13.7565 33.0282 14.8959L26.195 19.8674C25.495 20.3767 25.2021 21.2785 25.4692 22.102L28.0782 30.1426C28.6762 31.9857 26.566 33.5171 24.9992 32.3771L18.1766 27.4133C17.4752 26.903 16.5248 26.903 15.8234 27.4133L9.00083 32.3771C7.43395 33.5171 5.32379 31.9857 5.92182 30.1426L8.53076 22.102C8.79792 21.2785 8.50503 20.3767 7.80503 19.8674L0.9718 14.8959C-0.594328 13.7565 0.211669 11.2786 2.14844 11.2786H10.5889C11.4556 11.2786 12.2237 10.7203 12.4912 9.8959L15.0976 1.86303Z" fill="#FDD331"/>
</svg>
