<svg width="44" height="44" viewBox="0 0 44 44" fill="none" xmlns="http://www.w3.org/2000/svg">
<g opacity="0.3">
<path d="M22 2L22 8.02151" stroke="#FF6A00" stroke-width="4" stroke-linecap="round"/>
<path d="M22 35.9785L22 42" stroke="#FF6A00" stroke-width="4" stroke-linecap="round"/>
<path d="M42 22L35.9785 22" stroke="#FF6A00" stroke-width="4" stroke-linecap="round"/>
<path d="M8.0215 22L2 22" stroke="#FF6A00" stroke-width="4" stroke-linecap="round"/>
<path d="M38.0858 8.02148L33.8279 12.2793" stroke="#FF6A00" stroke-width="4" stroke-linecap="round"/>
<path d="M10.1288 33.828L5.87097 38.0859" stroke="#FF6A00" stroke-width="4" stroke-linecap="round"/>
<path d="M33.828 33.828L38.0858 38.0859" stroke="#FF6A00" stroke-width="4" stroke-linecap="round"/>
<path d="M5.87097 8.02148L10.1288 12.2793" stroke="#FF6A00" stroke-width="4" stroke-linecap="round"/>
<path d="M22.0002 11.7473C27.6625 11.7474 32.2532 16.3379 32.2532 22.0002C32.253 27.6625 27.6625 32.253 22.0002 32.2532C16.3379 32.2532 11.7474 27.6625 11.7473 22.0002C11.7473 16.3378 16.3378 11.7473 22.0002 11.7473Z" fill="#FF6A00" stroke="#FF6A00"/>
</g>
</svg>
