<svg xmlns="http://www.w3.org/2000/svg" viewBox="0 0 192 192">
  <!-- 배경 원 -->
  <circle cx="96" cy="96" r="88" fill="#8B5CF6" stroke="#E5E7EB" stroke-width="2"/>
  
  <!-- 동화책 -->
  <g transform="translate(96, 96)">
    <!-- 책 표지 -->
    <rect x="-35" y="-25" width="70" height="50" rx="4" ry="4" fill="#FFFFFF" stroke="#7C3AED" stroke-width="1"/>
    
    <!-- 책 페이지들 -->
    <rect x="-30" y="-20" width="60" height="40" rx="3" ry="3" fill="#FEFCE8" stroke="#F3F4F6" stroke-width="0.5"/>
    
    <!-- 책 제목 장식 -->
    <rect x="-25" y="-15" width="50" height="2" rx="1" fill="#8B5CF6" opacity="0.5"/>
    <rect x="-20" y="-10" width="40" height="1.5" rx="0.75" fill="#EC4899" opacity="0.5"/>
    <rect x="-18" y="-5" width="36" height="1.5" rx="0.75" fill="#F59E0B" opacity="0.5"/>
    
    <!-- 페이지 내용 (텍스트 라인들) -->
    <g opacity="0.6">
      <rect x="-22" y="-2" width="20" height="0.8" rx="0.4" fill="#6B7280"/>
      <rect x="-22" y="0" width="25" height="0.8" rx="0.4" fill="#6B7280"/>
      <rect x="-22" y="2" width="18" height="0.8" rx="0.4" fill="#6B7280"/>
      <rect x="-22" y="4" width="23" height="0.8" rx="0.4" fill="#6B7280"/>
      
      <rect x="5" y="-2" width="15" height="0.8" rx="0.4" fill="#6B7280"/>
      <rect x="5" y="0" width="18" height="0.8" rx="0.4" fill="#6B7280"/>
      <rect x="5" y="2" width="12" height="0.8" rx="0.4" fill="#6B7280"/>
      <rect x="5" y="4" width="16" height="0.8" rx="0.4" fill="#6B7280"/>
    </g>
    
    <!-- 책 중앙 바인딩 라인 -->
    <line x1="0" y1="-20" x2="0" y2="20" stroke="#E5E7EB" stroke-width="1"/>
    
    <!-- 마법 반짝이 효과 -->
    <g opacity="0.8">
      <!-- 별들 -->
      <circle cx="-45" cy="-35" r="2" fill="#FFD700"/>
      <circle cx="45" cy="-30" r="1.5" fill="#FFD700"/>
      <circle cx="-40" cy="40" r="1.5" fill="#FDE047"/>
      <circle cx="40" cy="35" r="2" fill="#FDE047"/>
      
      <!-- 작은 반짝이들 -->
      <circle cx="-35" cy="-50" r="1" fill="#EC4899"/>
      <circle cx="38" cy="-45" r="0.8" fill="#8B5CF6"/>
      <circle cx="-42" cy="50" r="0.8" fill="#06B6D4"/>
      <circle cx="45" cy="48" r="1" fill="#06B6D4"/>
    </g>
  </g>
</svg>
